<?xml version="1.0" encoding="UTF-8"?>
<!DOCTYPE svg PUBLIC "-//W3C//DTD SVG 1.1//EN" "http://www.w3.org/Graphics/SVG/1.1/DTD/svg11.dtd">
<!-- Creator: CorelDRAW 2020 (64-Bit) -->
<svg xmlns="http://www.w3.org/2000/svg" xml:space="preserve" width="210mm" height="297mm" version="1.1" style="shape-rendering:geometricPrecision; text-rendering:geometricPrecision; image-rendering:optimizeQuality; fill-rule:evenodd; clip-rule:evenodd"
viewBox="0 0 21000 29700"
 xmlns:xlink="http://www.w3.org/1999/xlink"
 xmlns:xodm="http://www.corel.com/coreldraw/odm/2003">
 <defs>
  <style type="text/css">
   <![CDATA[
    .fil1 {fill:#40156B}
    .fil3 {fill:#51296F}
    .fil5 {fill:#5A27A2}
    .fil0 {fill:#5B28A4}
    .fil4 {fill:#5F1F8E}
    .fil2 {fill:#7943A2}
    .fil9 {fill:#F9F9F9}
    .fil8 {fill:#FAF9FB}
    .fil7 {fill:#FDFCFD}
    .fil6 {fill:#FEFEFE}
   ]]>
  </style>
 </defs>
 <g id="Слой_x0020_1">
  <metadata id="CorelCorpID_0Corel-Layer"/>
  <g id="_2345063581776">
   <path class="fil0" d="M9766.12 11532c0,-888.66 0,-1777.31 0,-2665.97 0,-1606.82 -146.01,-1026.84 349.42,-1975.46 19.95,-38.22 35.32,-71.2 52.75,-103.61 64.59,-120.15 91.95,-85.7 360.43,-85.7l-2.41 4836.05 -760.19 -5.31zm1035.31 -2466.43c55.35,-112.21 143.17,-209.7 207.64,-308.17 123.22,-188.16 1396.97,-2040.89 1454.52,-2056.14l729.92 2.56c-33.94,81.42 -146.03,221.83 -205.2,305.68l-1029.39 1439.84c-71.33,96.27 -130.78,183.35 -202.26,284.68 -59.52,84.4 -155.98,202.93 -196.05,291.65 145.85,215.07 296.23,417.62 440.44,630.96 146.56,216.79 279.86,414.58 430.01,620.82 82.29,113.07 804.04,1132.31 863.69,1259.53l-837.99 0c-54.8,-99.84 -139.69,-207.87 -205.85,-309.28l-618.7 -919.36c-76.41,-117.36 -137.29,-203.36 -210.74,-314.5l-620.04 -928.27zm-1289.41 -1157.28l0 3896.17 1268.13 0 0.38 -2289.66 775.96 1133.04c84.38,119.55 752.24,1143.88 794.41,1156.62l1444.21 -3.98 -715.67 -1034.08c-80.74,-114.42 -149.75,-224.31 -238.03,-345.88l-964.61 -1394.85c26.39,-70.5 374.9,-545.18 447.09,-647.64l1379.6 -1943.96 -1408.95 0c-226.6,367.4 -489.13,724.96 -747.15,1099.93l-764.62 1084.88 -2.55 -2184.81 -410.67 0c53.59,-146.69 621.84,-1122.59 735.04,-1372.07l-3118.44 0.18c25.94,30.39 319.2,590.66 377.74,696.13 129.8,233.85 259.95,470.16 385.36,707.98 91.98,174.42 762.77,1370.24 762.77,1442z"/>
   <path class="fil1" d="M11859.98 12759.38l-3.03 93.43 -1890.32 5.43 5.62 1685.66 382.77 5.84 1395.43 0.69 -5.1 169.61 4.42 91.79 -1782.96 4.97 -0.03 1892.68 387.46 4.49 1502.6 -2.49 2.63 178.98 0.56 96.45 -2061.98 -2.54 0 -4224.39c-44.56,78.1 -16.57,881.19 -16.57,1034.51l0 3192.51 -142.68 -0.56 0.12 -4404.81 2217.92 -0.51 3.14 178.26zm-2061.93 4643.57l0 -173.89 2285.04 -3.11 0.86 -337 -0.78 -413.88 -1728.15 -10.19 -165.61 0.17 4.11 -1409.69 1778.4 -6.13 5.9 -329.36 -5.32 -407.66 -1619.18 -8.58 -163.01 0.13 -0.74 -1207.35 1893.51 -7.21 0.08 -331.51 0.08 -412.95 -2668.77 -6.96 0 4888.08 367.01 0.65c0,73.76 -11.05,128.03 16.57,176.44z"/>
   <path class="fil1" d="M13540.33 12760.02l1026.36 1733.54c29.28,-22.31 9.18,-0.84 39.13,-39.74 50.71,-65.81 26.56,-83.94 95.6,-135.26 27.67,-100.19 183.93,-337.17 244.97,-440.87l765.81 -1295.36 304.67 -1.39 -1176.89 1943.53c10.64,-30.91 5.35,-1.65 -29.38,-17.79 2.84,98.9 -23.38,86.76 -56.35,165.74l1378.68 2310.13 -360.99 3.37 -1207.56 -2110.8 -74.37 73.08c-20.4,100.09 -500.45,887.96 -588.75,1032.44l-452.06 758.47c-50.49,77.92 -109.63,189.25 -159.15,247.79l-282.18 -1.16c76.33,-165.12 530.04,-885.51 668.85,-1124.62 84.02,-144.74 631.74,-1080.95 689.24,-1121.63 17.11,-113.61 -165.89,-356.22 -254.76,-500.31 -128.93,-208.98 -851.62,-1369.45 -899.69,-1490.48 -54.98,-48.02 -75.45,-103.83 -104.81,-166.85l336.46 -0.17 97.17 178.34zm-373.97 4471.79l280.57 -6.71 1098.7 -1893.22c63.84,40.48 154.09,214.41 157.65,298.2 44.39,-29.15 61.65,49.59 125.94,160.55l355.18 620.17c80.59,139.59 153.29,267.28 235.09,408.87 70.63,122.23 177.33,286.71 228.49,406.78l236.95 4.11 630.23 -2.24c44.76,-41.5 24.82,6.38 1.01,-55.07l-309.28 -511.15c-118.28,-188.97 -231.2,-381.53 -343.24,-572.97 -111.1,-189.82 -225.51,-383.75 -343.38,-573.03 -61.98,-99.5 -321.31,-500.13 -328.41,-584.11 -48.92,-29.68 -56.72,-54.24 -96.78,-121.89 -28.53,-48.15 -54.48,-89.44 -75.75,-137.68l1174.44 -1912.74c35.95,-91.26 192.28,-335.3 244.38,-412.71l-818.99 -9.62c-85.39,19.29 -913.46,1571.74 -1047.48,1707.45l-1002.96 -1700.99 -880.93 -5.84 1429.48 2349.33 -1520.89 2532.25 569.98 12.26z"/>
   <path class="fil0" d="M3768.46 11183.6c49.98,-115.57 127.64,-239.49 190.51,-357.75 265.01,-498.51 1215.89,-2186.86 1358.89,-2509.86l-3118.27 0.07c37.24,49.05 142.78,261.9 185.01,342.42l591.17 1088.21c94.04,172.38 740.96,1385.89 792.69,1436.91z"/>
   <path class="fil0" d="M4129.46 11190.01l3112.43 0c-45.45,-110.58 -143.74,-264.23 -201.71,-373.98l-1155.34 -2124.8c-61.95,-111.58 -131.2,-261.81 -201.96,-357.79 -59.88,51.54 -673.99,1222.6 -775.23,1405.39 -71.76,129.53 -738.44,1336.57 -778.19,1451.18z"/>
   <path class="fil0" d="M6066.56 7935.94l3105.28 0c-93.76,-250.56 -1544.86,-2847.13 -1554.3,-2856.19l-1158.65 2116.56c-62.18,119.21 -129.99,239.23 -192.55,354.23 -53.14,97.69 -168.29,282.3 -199.78,385.4z"/>
   <path class="fil0" d="M275.18 17818.34l3116.15 0 -1166.99 -2145.19c-63.38,-115.2 -123.86,-233.38 -192.04,-354.97 -52.19,-93.08 -140.35,-285.21 -199.97,-357.46 -41.86,36.88 -703.08,1265.74 -781.54,1415.49 -129.91,247.98 -259.11,474.12 -391.63,721.28 -61.76,115.19 -129.04,232.85 -192.47,354.31 -54.2,103.76 -158.41,265.46 -191.51,366.54z"/>
   <path class="fil0" d="M7617.54 11172.15c47.68,-48.47 731.92,-1328.05 780.16,-1417.8l773.87 -1438.36 -3103.64 0c30.23,96.46 124.29,253.47 178.78,349.91 162.79,288.03 1298.96,2424.7 1370.83,2506.25z"/>
   <path class="fil0" d="M2200.49 14540.72l3118.23 4.34c-52.5,-118.65 -122.74,-229.51 -184.67,-346.92l-975.89 -1796.88c-129.7,-243.7 -280.52,-488.97 -390.59,-723.52 -48.76,51.7 -159.63,271.95 -199.83,348.69l-590.84 1088.42c-125.16,239.47 -262.66,483.89 -391.83,721.26l-384.58 704.61z"/>
   <path class="fil0" d="M2210.1 7933.39l3104 2.6c-43.47,-123.01 -127.7,-247.29 -192.53,-368.82 -192.29,-360.44 -1267.54,-2299.97 -1349.59,-2497.91 -80.67,89.32 -748.73,1350.61 -789.29,1427.53 -125.6,238.21 -255.52,473.73 -385.35,707.98l-387.24 728.62z"/>
   <path class="fil0" d="M1832.33 7919.8c61.53,-78.58 140.02,-251.36 192.59,-346.04l1359.8 -2511.76 -3299.22 0 189.32 0 1557.51 2857.8z"/>
   <path class="fil0" d="M3772.2 17811.95c109.72,-288.41 1456.85,-2630.47 1541.58,-2867.56l-3105.06 0.08 1563.48 2867.48z"/>
   <path class="fil0" d="M15048.36 9721.25l-0.15 1808.25 -760.04 7.95 -2.44 -4836.19c575.17,0 1474.05,-54.29 2002.54,58.11 565.92,120.37 932.7,462.99 1034.5,1074.31 93.01,558.49 -63.09,1261.44 -519.55,1571.82 -540.7,367.62 -1030.54,315.75 -1754.86,315.75zm-1014.31 2083.21l1267.56 0 1.15 -1813.29c488.86,-26.66 1018.15,20.77 1474.07,-254.23 66.93,-40.35 111.61,-69.52 173.39,-114.91 74.74,-54.9 97.81,-85.89 164.42,-144.83 634.72,-561.81 900.89,-2658.28 -817.74,-2988.67 -446.62,-85.86 -1732.64,-54.46 -2260.42,-54.46l-2.43 5370.39z"/>
   <path class="fil1" d="M6727.81 12592.69c189.79,-47.72 1302.1,-16.23 1588.92,-10.75l2.21 175.53 -4.39 95.52 -1355.77 3.37 0.04 4128.74 -174.16 1.39 0.22 -3511.5c1.55,-155.19 13.71,-148.45 -22.9,-196.61l-0.07 3710.78 -131.55 -11.01 0.45 -3707.66 -0.21 -417.44 -1208.67 6.15 -157.63 -6.83 3.44 -270.73c181.22,-3.98 1391.43,-23.29 1460.07,11.05zm-1310.97 495.9l990.38 16.32 -0.36 165.87 0.37 3955.67 354.5 0c0.19,66.83 -10.95,132.92 22.75,185.01l0 -184.4 397.25 -6.86 0 -4124.09 1360.65 -1.68 0.07 -334.5 0.07 -420.55 -1658.21 -4.43 -1842.98 5.71 0.02 755.4 375.49 -7.47z"/>
   <path class="fil2" d="M17234.51 12665.09c-111.23,34.13 -301.9,551.28 -369.67,698 -42.76,92.58 -161.84,275.82 -132.67,382.73l168.65 367.28c43.36,116.26 111.95,219.93 170.06,354.48 120.79,279.63 103.35,241.67 275.81,239.67 212.32,-2.48 847.78,28.12 1000.42,-9.06 67.02,-52.47 199.74,-394.35 246.8,-498.98 43.57,-96.88 226.21,-400.39 226.07,-504.92l-439.69 -1028.08 -1145.78 -1.12z"/>
   <path class="fil3" d="M17190.21 17124.41l1190.32 3.89 347.24 -770.66c206.19,-392.81 96.3,-196.32 -240.66,-998.84 -42.51,-101.24 -76.71,-152.49 -110.41,-257.65 -233.84,-41.95 -728.76,-8.61 -992.04,-10.9 -76.22,-0.65 -168.55,-19.95 -210.72,37.5l-423.93 906.02c-55.36,138.25 50.35,253.02 106.01,374.57l248.08 537.15c25.27,50.18 67.32,128.11 86.11,178.92z"/>
   <path class="fil4" d="M20556.84 15426.78c40.4,-86.86 82.99,-178.04 123.88,-269.88 41.17,-92.51 114.29,-159.99 73.67,-268.83 -31.68,-84.84 -85.74,-196.15 -122.09,-274.29l-241.53 -499.08c-82.48,-190.02 -55.23,-195.46 -169.74,-195.46l-1074.69 1.21 -480.97 1014.01c-5.97,71.15 187.06,438.93 224.38,514.16l232.76 507.74 1211.22 -2.85 223.11 -526.73z"/>
   <path class="fil0" d="M6364.77 13276.13l-947.31 -3.28 -0.62 -184.26 -375.49 7.47 -0.02 -755.4 1842.98 -5.71c59.87,-152.67 295.99,-507.24 347.64,-663.83l-3103.29 0.18c38.81,115.14 128.92,252.16 187.17,362.69 67.96,128.94 124.15,227.43 192.38,354.27 127.32,236.67 264.8,478.27 391.73,721.41 127.74,244.69 252.55,459.71 384.93,708.42 65.96,123.92 337.6,656.23 402.41,714.97l677.49 -1256.93z"/>
   <path class="fil5" d="M5918.75 17634.73l603.95 0.33c40.59,70.77 871.64,2554.76 899.8,2698.93l-499.59 -0.51 -186.03 -661.46 -1021.69 6.61 -190.85 655.19 -503.93 -2.71 898.34 -2696.38zm1643.48 2329.57c294.87,8.49 333.14,8.17 411.5,-304.98 105.09,-420 257.67,-1583.25 300.26,-2013.37l1574.7 5.36 -3.29 2682.56 -465.84 -0.57 -0.25 -2289 -720.82 9.3c-61.09,519.85 -114.84,1047.45 -208.69,1554.41 -95.06,513.57 -302.27,896.95 -887.67,732.63l0.1 -376.34zm-677.23 459.04c175.57,0.46 351.15,-0.45 526.7,-0.32 168.34,0.14 286.68,52.96 469.15,37.38 610.64,-52.12 664.36,-835.75 739.34,-1391.95l100.92 -848.59c26.6,-132.71 2.24,-87.33 574.71,-85.63l-0.03 2287.79 637.44 0.09 0 -2865.33 -1734.36 4.59c-40.57,454.66 -114.48,925.68 -178.78,1367.69 -31.98,219.86 -67.52,451.84 -116.14,656.57 -80.51,338.98 -120.28,317.82 -425.3,248.84l-6.19 373.8c4.56,-42.98 -386,-1181.82 -440.78,-1340.55 -49.19,-142.54 -406.31,-1307.6 -465.99,-1326.73l-713.83 4.28 -947.17 2878.35 684.51 -3.85 190.43 -654.84 889.4 5.74c40.42,120.04 145.78,601.86 215.97,652.67z"/>
   <path class="fil6" d="M14365.96 14739.49c32.95,43.66 100.45,156.11 124.05,208.71l74.37 -73.08 1207.56 2110.8 360.99 -3.37 -1378.68 -2310.13c32.97,-78.98 59.19,-66.84 56.35,-165.74 -42.95,-60.31 -79.89,-127.42 -109.18,-188.12 -69.04,51.32 -44.89,69.45 -95.6,135.26 -29.95,38.9 -9.85,17.43 -39.13,39.74l-1026.36 -1733.54 -328.82 -11.32c48.07,121.03 770.76,1281.5 899.69,1490.48 88.87,144.09 271.87,386.7 254.76,500.31z"/>
   <polygon class="fil6" points="11859.47,16890.46 10355.02,16888.09 10354.24,16713.97 9966.78,16709.48 9966.81,14816.8 11749.77,14811.83 11745.35,14720.04 10355.02,14719.53 10355.02,14549.74 9972.25,14543.9 9966.63,12858.24 11856.95,12852.81 11859.98,12759.38 9798.05,12759.98 9798.05,16984.37 11860.03,16986.91 "/>
   <path class="fil0" d="M15468.9 8835.95l-166.45 -2.01 0.02 -1242.12c509.09,-21.56 1071.5,-35.42 1011.23,695.54 -36.39,441.22 -411.77,548.59 -844.8,548.59zm-418.14 267.2c594.24,0 1511.03,73.91 1521.21,-895.57 10.59,-1009.03 -923.7,-888.09 -1509.47,-888.09 -34.15,109.5 -21.46,1567.69 -11.74,1783.66z"/>
   <path class="fil5" d="M15366.05 17648.03l469.52 -1.69 2.47 1089.77 1118.35 -0.44 0.74 -1088.72 469.35 0.7 -5.05 2687.12 -464 -4.44 -0.29 -1197.01 -1121.34 0.04 -2.31 1200.56 -467.31 -7.52 -0.13 -2678.37zm557.8 1578.28l948.5 4.87 0.3 1192.79 637.37 -10.14 -6.8 -2856.21 -617 0.13c-37.03,117.06 -13.58,893.06 -13.57,1084.41l-952.86 -2.81 -0.01 -1082.19 -637.23 5.82 0 2859.93 637.04 -3.83 4.26 -1192.77z"/>
   <polygon class="fil7" points="6784.48,17411.46 7345.55,17404.15 7345.5,13274.86 8703.22,13274.62 8704.11,12760.03 8542.45,12759.93 8542.38,13094.43 7181.73,13096.11 7181.73,17220.2 6784.48,17227.06 "/>
   <path class="fil6" d="M5421.93 12859.2l1208.67 -6.15 0.21 417.44 131.17 7.89c36.61,48.16 24.45,41.42 22.9,196.61l-0.22 3511.5 174.16 -1.39 -0.04 -4128.74 1355.77 -3.37 4.39 -95.52 -1662.88 0.24 -1240.28 1.15 6.15 100.34z"/>
   <path class="fil5" d="M13335.52 19141.95c-51.56,-48.03 -95.71,-56.61 -148.37,-90.7 -484.24,-313.38 -529.1,-1365.81 534.25,-1402.35 272.06,-9.34 633.48,-18.82 901.22,0.81l-4.08 2684.51 -464.71 -1.78 -6.12 -1064.22 -402.12 1.55c-108.97,158.99 -212.38,361.56 -315.35,540.38 -49,85.1 -261.12,497.73 -328.01,524.5l-474.42 -0.14c35.65,-130.35 634.86,-1013.05 707.71,-1192.56zm1371.56 -1584.84c-573.22,-2.59 -1323.01,-90.07 -1705.65,260.58 -174.98,160.35 -259.31,447.96 -201.43,784.47 69.58,404.56 318.66,473.48 415.81,581.78l-745.72 1238.26 716.25 0.78c49.77,-136.67 221.37,-396.25 305.9,-547.78 342.84,-614.46 242.26,-526.87 577.13,-506.27l0 1054.51 637.59 -0.2 0.12 -2866.13z"/>
   <path class="fil0" d="M19805.83 18164.97c-202.81,-37.28 -537.56,-299.28 -919.32,-61.64 -433.97,270.12 -492.82,1461.89 -15.31,1774.63 327.01,214.19 753.34,12.32 992.08,-21.97l0 385.27c-457.93,151.35 -906.62,223.3 -1328.23,-46.81 -729.06,-467.08 -762.18,-2645.54 747.57,-2586.07 188.69,7.43 527.44,86.31 659.28,176.75l-136.07 379.84zm141.34 2114.31l-0.5 -556.41c-294.63,72.9 -606.02,242.86 -945.36,115.59 -509.31,-190.98 -492.13,-1383.93 -60.97,-1657.94 328.57,-208.8 639.17,23.14 914.48,109.22l203.53 -562.63c-246.92,-85.13 -401.5,-179.5 -700.66,-202.65 -292.94,-22.68 -542.05,23.37 -761.6,150.43 -362.86,210.01 -608.99,654.47 -625.71,1246.97 -57.84,2047.79 1863.67,1537.75 1976.79,1357.42z"/>
   <path class="fil8" d="M20333.73 15953.51l-1211.22 2.85 -232.76 -507.74c-37.32,-75.23 -230.35,-443.01 -224.38,-514.16l480.97 -1014.01 1074.69 -1.21c114.51,0 87.26,5.44 169.74,195.46l241.53 499.08c36.35,78.14 90.41,189.45 122.09,274.29 40.62,108.84 -32.5,176.32 -73.67,268.83 -40.89,91.84 -83.48,183.02 -123.88,269.88l-223.11 526.73zm-1234 129.32l1248.09 0c72.15,-140.94 612.85,-1102.85 610.56,-1147.89l-581.7 -1085.24c-50.32,-72.92 -6.8,-31.13 -61.74,-57.11l-1225.6 0c-65.76,187.17 -602.65,1064.6 -605.57,1142.22 -1.94,51.65 544.83,1016.07 615.96,1148.02z"/>
   <path class="fil9" d="M17190.21 17124.41c-18.79,-50.81 -60.84,-128.74 -86.11,-178.92l-248.08 -537.15c-55.66,-121.55 -161.37,-236.32 -106.01,-374.57l423.93 -906.02c42.17,-57.45 134.5,-38.15 210.72,-37.5 263.28,2.29 758.2,-31.05 992.04,10.9 33.7,105.16 67.9,156.41 110.41,257.65 336.96,802.52 446.85,606.03 240.66,998.84l-347.24 770.66 -1190.32 -3.89zm-30.83 111.04l1202.12 0c66.7,-18.27 634.24,-1136.02 634.13,-1145.86 -0.1,-11.11 -570.37,-1127.61 -634.13,-1144.99l-1202.12 0c-66.26,42.03 -269.79,456.3 -327.17,557.41 -41.64,73.34 -305.35,548.43 -305.79,587.61 -0.54,47.55 255.04,489.68 299.24,573.08 54.59,102.99 267.25,530.59 333.72,572.75z"/>
   <path class="fil8" d="M17234.51 12665.09l1145.78 1.12 439.69 1028.08c0.14,104.53 -182.5,408.04 -226.07,504.92 -47.06,104.63 -179.78,446.51 -246.8,498.98 -152.64,37.18 -788.1,6.58 -1000.42,9.06 -172.46,2 -155.02,39.96 -275.81,-239.67 -58.11,-134.55 -126.7,-238.22 -170.06,-354.48l-168.65 -367.28c-29.17,-106.91 89.91,-290.15 132.67,-382.73 67.77,-146.72 258.44,-663.87 369.67,-698zm-75.13 2148.12l1202.12 0c42.3,-11.56 638.74,-1101.89 634.27,-1153.8 -3.36,-38.94 -265.56,-501.96 -311.12,-587.19 -50.56,-94.63 -257.2,-549.27 -341.94,-549.27l-1164.54 0c-73.24,0 -280.63,438.73 -340.69,550.91 -47.32,88.41 -307.55,544.2 -311.23,585.7 -4.55,51.48 580.74,1120.96 633.13,1153.65z"/>
   <path class="fil5" d="M10594.02 20329.46l-3.03 -2676.99 469.36 -6.9 0.73 1063.26c388.49,25.42 684.08,-23.16 981.31,182.47 219.94,152.17 376.27,453.87 279.86,860.81 -73.6,310.68 -304.75,485.96 -629.44,545.82 -246.79,45.49 -847.67,61.64 -1098.79,31.53zm-87.45 91.96c658.36,23.93 1672.46,128.41 1883.47,-598.57 118.65,-408.73 -24.98,-801.53 -242.06,-964.43 -317.52,-238.29 -560.61,-231.71 -999.13,-240.87l-5.89 -1058.02 -623.69 -2.38c-30.85,104.53 -12.7,2538.73 -12.7,2864.27z"/>
   <path class="fil6" d="M13166.36 17231.81c-31.19,64.28 -66.86,110.75 -95.09,167.17 680.18,9.42 547.25,67.38 704.08,-195.32 123.91,-207.55 875.79,-1524.25 927.93,-1573.58 -3.56,-83.79 -93.81,-257.72 -157.65,-298.2l-1098.7 1893.22 -280.57 6.71z"/>
   <path class="fil6" d="M15191.86 14931.99c21.38,-72.77 999.38,-1639.48 1147.02,-1889.05 52.61,-88.93 122.77,-186.12 169.78,-284.94l-314.89 1.68 -1174.44 1912.74c21.27,48.24 47.22,89.53 75.75,137.68 40.06,67.65 47.86,92.21 96.78,121.89z"/>
   <polygon class="fil6" points="10355.02,16464.88 10355.02,15231.19 12139.42,15230.88 12138.4,14722.94 11977.82,14719.87 11971.92,15049.23 10193.52,15055.36 10189.41,16465.05 "/>
   <polygon class="fil6" points="10353.32,14303.63 10355.11,13274.76 12249.18,13274.34 12249.82,12764.57 12083.16,12757.69 12083.08,13089.2 10189.57,13096.41 10190.31,14303.76 "/>
   <polygon class="fil6" points="9798.05,17402.95 12249.76,17405.81 12249.65,16895.52 12083.95,16888.95 12083.09,17225.95 9798.05,17229.06 "/>
   <path class="fil5" d="M6230.05 18216.49l274.51 960.57 -558.58 -3.79 284.07 -956.78zm-396.07 1044.9l787.52 1.2c-40.57,-195.88 -126.77,-441.99 -185.42,-639.73 -41.54,-140.09 -142.16,-606.91 -209.27,-611.36 -73.43,-4.87 -164.15,457.03 -209.01,608.16 -59.86,201.8 -139.42,438.54 -183.82,641.73z"/>
   <path class="fil0" d="M5421.93 12859.2l-6.15 -100.34 1240.28 -1.15 71.75 -165.02c-68.64,-34.34 -1278.85,-15.03 -1460.07,-11.05l-3.44 270.73 157.63 6.83z"/>
   <path class="fil5" d="M11143.9 19197.64c237.14,-8 604.73,-15.85 640.76,246.53 45.29,329.92 -204.68,407.66 -485.62,407.66l-75.15 0.44 -79.92 -2.69 -0.07 -651.94zm-83.55 738.16c372.64,47.38 882.17,-9.68 805.83,-513.96 -25.59,-169.01 -127.97,-246.15 -283.31,-282.83 -139.92,-33.05 -378.03,-53.3 -522.52,-29.87l0 826.66z"/>
   <path class="fil5" d="M14069.37 18775.3c-112.12,35.66 -345.83,16.7 -449.78,-24.19 -119.46,-46.97 -189.1,-143.42 -191.17,-307.56 -4.56,-359.92 441.07,-345.32 640.6,-306.74l0.35 638.49zm83.76 -733.91c-372.68,-40.99 -829.44,-29.92 -808.25,422.56 20.3,433.62 420.37,432.16 807.54,409.81l0.71 -832.37z"/>
   <polygon class="fil6" points="6364.77,13276.13 6406.86,13270.78 6407.22,13104.91 5416.84,13088.59 5417.46,13272.85 "/>
   <polygon class="fil6" points="16515.16,17228.32 15884.93,17230.56 15978.95,17401.05 16610.85,17405.5 "/>
  </g>
 </g>
</svg>
