<svg xmlns="http://www.w3.org/2000/svg" version="1.1" xmlns:xlink="http://www.w3.org/1999/xlink" xmlns:svgjs="http://svgjs.com/svgjs" width="512" height="512" x="0" y="0" viewBox="0 0 64 64" style="enable-background:new 0 0 512 512" xml:space="preserve" class=""><g><g xmlns="http://www.w3.org/2000/svg"><path d="m56 28.5c-.26 0-.52-.11-.71-.29-.18-.19-.29-.45-.29-.71s.11-.52.29-.71c.38-.37 1.05-.37 1.42 0 .18.19.29.45.29.71 0 .27-.11.52-.29.71-.19.18-.45.29-.71.29z" fill="#000000" data-original="#000000" class=""></path></g><g xmlns="http://www.w3.org/2000/svg"><path d="m22 46.5c-.26 0-.52-.11-.71-.29-.18-.19-.29-.45-.29-.71s.11-.52.29-.71c.38-.37 1.04-.37 1.42 0 .18.19.29.45.29.71s-.11.52-.29.71c-.19.18-.45.29-.71.29z" fill="#000000" data-original="#000000" class=""></path></g><g xmlns="http://www.w3.org/2000/svg"><path d="m56 36.5c-.552 0-1-.448-1-1v-4c0-.552.448-1 1-1s1 .448 1 1v4c0 .552-.448 1-1 1z" fill="#000000" data-original="#000000" class=""></path></g><g xmlns="http://www.w3.org/2000/svg"><path d="m56 24.5c-.552 0-1-.448-1-1v-11.5c0-.552.448-1 1-1s1 .448 1 1v11.5c0 .552-.448 1-1 1z" fill="#000000" data-original="#000000" class=""></path></g><g xmlns="http://www.w3.org/2000/svg"><path d="m22 42.5c-.552 0-1-.448-1-1v-11.808c0-.552.448-1 1-1s1 .448 1 1v11.808c0 .552-.448 1-1 1z" fill="#000000" data-original="#000000" class=""></path></g><g xmlns="http://www.w3.org/2000/svg"><path d="m22 54.5c-.552 0-1-.448-1-1v-4c0-.552.448-1 1-1s1 .448 1 1v4c0 .552-.448 1-1 1z" fill="#000000" data-original="#000000" class=""></path></g><g xmlns="http://www.w3.org/2000/svg"><path d="m35.129 54.008c-.552 0-1-.448-1-1v-15.508c0-.552.448-1 1-1s1 .448 1 1v15.508c0 .552-.447 1-1 1z" fill="#000000" data-original="#000000" class=""></path></g><g xmlns="http://www.w3.org/2000/svg"><path d="m54 38.5c-.552 0-1-.448-1-1s.448-1 1-1c.551 0 1-.449 1-1 0-.552.448-1 1-1s1 .448 1 1c0 1.654-1.346 3-3 3z" fill="#000000" data-original="#000000" class=""></path></g><g xmlns="http://www.w3.org/2000/svg"><path d="m54 38.5h-32c-.552 0-1-.448-1-1s.448-1 1-1h32c.552 0 1 .448 1 1s-.448 1-1 1z" fill="#000000" data-original="#000000" class=""></path></g><g xmlns="http://www.w3.org/2000/svg"><path d="m50 21h-14.636c-.552 0-1-.448-1-1s.448-1 1-1h14.636c.552 0 1 .448 1 1s-.448 1-1 1z" fill="#000000" data-original="#000000" class=""></path></g><g xmlns="http://www.w3.org/2000/svg"><path d="m50 25h-13.515c-.552 0-1-.448-1-1s.448-1 1-1h13.515c.552 0 1 .448 1 1s-.448 1-1 1z" fill="#000000" data-original="#000000" class=""></path></g><g xmlns="http://www.w3.org/2000/svg"><path d="m50 29h-15.505c-.552 0-1-.448-1-1s.448-1 1-1h15.505c.552 0 1 .448 1 1s-.448 1-1 1z" fill="#000000" data-original="#000000" class=""></path></g><g xmlns="http://www.w3.org/2000/svg"><path d="m46 17h-19c-.552 0-1-.448-1-1s.448-1 1-1h19c.552 0 1 .448 1 1s-.448 1-1 1z" fill="#000000" data-original="#000000" class=""></path></g><g xmlns="http://www.w3.org/2000/svg"><path d="m36.5 11c-.552 0-1-.448-1-1v-2c0-.552.448-1 1-1s1 .448 1 1v2c0 .552-.448 1-1 1z" fill="#000000" data-original="#000000" class=""></path></g><g xmlns="http://www.w3.org/2000/svg"><path d="m17 16.996c-.552 0-1-.448-1-1v-3.996c0-.552.448-1 1-1s1 .448 1 1v3.996c0 .552-.448 1-1 1z" fill="#000000" data-original="#000000" class=""></path></g><g xmlns="http://www.w3.org/2000/svg"><path d="m17 13c-.552 0-1-.448-1-1 0-1.654 1.346-3 3-3 .552 0 1 .448 1 1s-.448 1-1 1c-.551 0-1 .449-1 1 0 .552-.448 1-1 1z" fill="#000000" data-original="#000000" class=""></path></g><g xmlns="http://www.w3.org/2000/svg"><path d="m54 11h-35c-.552 0-1-.448-1-1s.448-1 1-1h35c.552 0 1 .448 1 1s-.448 1-1 1z" fill="#000000" data-original="#000000" class=""></path></g><g xmlns="http://www.w3.org/2000/svg"><path d="m56 13c-.552 0-1-.448-1-1 0-.551-.449-1-1-1-.552 0-1-.448-1-1s.448-1 1-1c1.654 0 3 1.346 3 3 0 .552-.448 1-1 1z" fill="#000000" data-original="#000000" class=""></path></g><g xmlns="http://www.w3.org/2000/svg"><path d="m10.84 27.602c-.423 0-.817-.271-.952-.697-.168-.526.123-1.089.649-1.256 3.225-1.029 6.686-1.232 10.01-.586.542.105.896.63.792 1.172-.105.542-.628.892-1.172.792-2.997-.583-6.116-.399-9.022.528-.102.031-.204.047-.305.047z" fill="#000000" data-original="#000000" class=""></path></g><g xmlns="http://www.w3.org/2000/svg"><path d="m20.357 27.044c-.376 0-.737-.213-.907-.578-.233-.5-.017-1.095.484-1.329l9.302-4.337c.498-.234 1.096-.018 1.329.484.233.5.017 1.095-.484 1.329l-9.302 4.337c-.136.065-.28.094-.422.094z" fill="#000000" data-original="#000000" class=""></path></g><g xmlns="http://www.w3.org/2000/svg"><path d="m31.35 26.332c-.376 0-.737-.213-.907-.577-.233-.5-.017-1.096.483-1.329.806-.376.495-1.15.424-1.301-.07-.151-.459-.885-1.27-.511-.499.234-1.096.018-1.329-.484-.233-.5-.017-1.095.484-1.329 1.744-.815 3.297.127 3.927 1.479.63 1.351.354 3.145-1.391 3.959-.135.063-.279.093-.421.093z" fill="#000000" data-original="#000000" class=""></path></g><g xmlns="http://www.w3.org/2000/svg"><path d="m22 30.692c-.376 0-.737-.213-.907-.577-.233-.501-.017-1.096.483-1.329l9.35-4.36c.5-.235 1.096-.017 1.329.483.233.501.017 1.096-.483 1.329l-9.35 4.36c-.136.064-.28.094-.422.094z" fill="#000000" data-original="#000000" class=""></path></g><g xmlns="http://www.w3.org/2000/svg"><path d="m25.769 57c-.279 0-.557-.116-.754-.343-.363-.417-.319-1.048.097-1.411l9.361-8.154c.417-.363 1.048-.319 1.411.097.363.417.319 1.048-.097 1.411l-9.361 8.154c-.19.165-.424.246-.657.246z" fill="#000000" data-original="#000000" class=""></path></g><g xmlns="http://www.w3.org/2000/svg"><path d="m44.49 57c-.233 0-.467-.081-.656-.246l-9.361-8.154c-.417-.363-.46-.994-.097-1.411.362-.416.994-.46 1.411-.097l9.361 8.154c.417.363.46.994.097 1.411-.198.227-.475.343-.755.343z" fill="#000000" data-original="#000000" class=""></path></g><g xmlns="http://www.w3.org/2000/svg"><path d="m8 41.746c-.552 0-1-.448-1-1v-10.316c0-.552.448-1 1-1s1 .448 1 1v10.316c0 .552-.448 1-1 1z" fill="#000000" data-original="#000000" class=""></path></g><g xmlns="http://www.w3.org/2000/svg"><path d="m8 31.43c-.552 0-1-.448-1-1 0-2.219 1.427-4.142 3.551-4.786.528-.161 1.087.139 1.247.667.16.529-.139 1.087-.667 1.247-1.275.387-2.131 1.541-2.131 2.872 0 .552-.448 1-1 1z" fill="#000000" data-original="#000000" class=""></path></g><g xmlns="http://www.w3.org/2000/svg"><path d="m12 54.5c-.552 0-1-.448-1-1v-21.985c0-.552.448-1 1-1s1 .448 1 1v21.985c0 .552-.448 1-1 1z" fill="#000000" data-original="#000000" class=""></path></g><g xmlns="http://www.w3.org/2000/svg"><path d="m17 26.689c-3.169 0-5.847-2.678-5.847-5.847s2.678-5.847 5.847-5.847 5.847 2.677 5.847 5.847-2.678 5.847-5.847 5.847zm0-9.693c-2.085 0-3.847 1.762-3.847 3.847s1.762 3.847 3.847 3.847 3.847-1.762 3.847-3.847c0-2.086-1.762-3.847-3.847-3.847z" fill="#000000" data-original="#000000" class=""></path></g><g xmlns="http://www.w3.org/2000/svg"><path d="m17 54.5c-.552 0-1-.448-1-1v-12.754c0-.552.448-1 1-1s1 .448 1 1v12.754c0 .552-.448 1-1 1z" fill="#000000" data-original="#000000" class=""></path></g><g xmlns="http://www.w3.org/2000/svg"><path d="m10 43.681c-1.491 0-3-1.008-3-2.935 0-.552.448-1 1-1s1 .448 1 1c0 .89.833.935 1 .935s1-.045 1-.935c0-.552.448-1 1-1s1 .448 1 1c0 1.927-1.509 2.935-3 2.935z" fill="#000000" data-original="#000000" class=""></path></g><g xmlns="http://www.w3.org/2000/svg"><path d="m19.5 56.918c-.894 0-1.736-.3-2.371-.846-.728-.626-1.129-1.54-1.129-2.572 0-.552.448-1 1-1s1 .448 1 1c0 1.378 1.347 1.418 1.5 1.418s1.5-.04 1.5-1.418c0-.552.448-1 1-1s1 .448 1 1c0 2.244-1.761 3.418-3.5 3.418z" fill="#000000" data-original="#000000" class=""></path></g><g xmlns="http://www.w3.org/2000/svg"><path d="m14.5 56.918c-.894 0-1.736-.3-2.371-.846-.728-.626-1.129-1.54-1.129-2.572 0-.552.448-1 1-1s1 .448 1 1c0 1.378 1.347 1.418 1.5 1.418s1.5-.04 1.5-1.418c0-.552.448-1 1-1s1 .448 1 1c0 2.244-1.761 3.418-3.5 3.418z" fill="#000000" data-original="#000000" class=""></path></g></g></svg>